<svg width="457" height="394" viewBox="0 0 457 394" fill="none" xmlns="http://www.w3.org/2000/svg">
<path d="M214.741 82.6224C163.988 100.71 98.3077 30.1748 98.3077 30.1748C98.3077 30.1748 125.136 113.186 98.3077 152.902C75.5388 186.609 6 201.154 6 201.154C6 201.154 64.2318 224.086 81.5245 261.993C99.8755 302.22 72.0839 364.79 72.0839 364.79C72.0839 364.79 137.886 316.943 182.224 327.028C219.968 335.613 258.797 389.965 258.797 389.965C258.797 389.965 269.817 325.633 303.902 303.951C344.71 277.992 420.336 317.587 420.336 317.587C420.336 317.587 373.632 250.032 379.427 201.154C385.64 148.741 456 95.2098 456 95.2098C456 95.2098 377.16 119.028 337.469 95.2098C301.985 73.9164 281.874 5 281.874 5C281.874 5 254.985 68.2802 214.741 82.6224Z" fill="#FEF200" stroke="#292929" stroke-width="3"/>
<mask id="path-2-inside-1" fill="white">
<path fill-rule="evenodd" clip-rule="evenodd" d="M375.229 244.16C375.229 238.732 374.447 233.46 372.971 228.419C390.248 221.596 402.503 204.447 402.503 184.37C402.503 177.106 400.899 170.226 398.033 164.078C400.891 158.209 402.503 151.557 402.503 144.51C402.503 120.758 384.188 101.503 361.594 101.503C352.768 101.503 344.595 104.442 337.912 109.438C333.799 96.2744 322.473 86.8177 309.146 86.8177C299.509 86.8177 290.918 91.7629 285.345 99.4791C278.723 76.5551 254.32 59.5449 225.229 59.5449C192.299 59.5449 165.375 81.3411 163.451 108.839C157.188 105.499 150.002 103.601 142.362 103.601C118.031 103.601 98.3063 122.856 98.3063 146.608C98.3063 152.976 99.7242 159.021 102.269 164.458C77.9513 165.153 58.4468 185.543 58.4468 210.594C58.4468 225.537 65.3865 238.821 76.1479 247.256C74.2005 251.828 73.1328 256.797 73.1328 261.993C73.1328 284.586 93.3269 302.902 118.238 302.902C134.794 302.902 149.267 294.811 157.112 282.751C157.069 283.52 157.047 284.293 157.047 285.07C157.047 313.456 186.165 336.468 222.082 336.468C247.878 336.468 270.167 324.599 280.68 307.393C286.445 308.571 292.465 309.195 298.656 309.195C340.946 309.195 375.229 280.078 375.229 244.16Z"/>
</mask>
<path fill-rule="evenodd" clip-rule="evenodd" d="M375.229 244.16C375.229 238.732 374.447 233.46 372.971 228.419C390.248 221.596 402.503 204.447 402.503 184.37C402.503 177.106 400.899 170.226 398.033 164.078C400.891 158.209 402.503 151.557 402.503 144.51C402.503 120.758 384.188 101.503 361.594 101.503C352.768 101.503 344.595 104.442 337.912 109.438C333.799 96.2744 322.473 86.8177 309.146 86.8177C299.509 86.8177 290.918 91.7629 285.345 99.4791C278.723 76.5551 254.32 59.5449 225.229 59.5449C192.299 59.5449 165.375 81.3411 163.451 108.839C157.188 105.499 150.002 103.601 142.362 103.601C118.031 103.601 98.3063 122.856 98.3063 146.608C98.3063 152.976 99.7242 159.021 102.269 164.458C77.9513 165.153 58.4468 185.543 58.4468 210.594C58.4468 225.537 65.3865 238.821 76.1479 247.256C74.2005 251.828 73.1328 256.797 73.1328 261.993C73.1328 284.586 93.3269 302.902 118.238 302.902C134.794 302.902 149.267 294.811 157.112 282.751C157.069 283.52 157.047 284.293 157.047 285.07C157.047 313.456 186.165 336.468 222.082 336.468C247.878 336.468 270.167 324.599 280.68 307.393C286.445 308.571 292.465 309.195 298.656 309.195C340.946 309.195 375.229 280.078 375.229 244.16Z" fill="white"/>
<path d="M372.971 228.419L371.869 225.629L369.323 226.635L370.092 229.262L372.971 228.419ZM398.033 164.078L395.336 162.765L394.71 164.05L395.314 165.346L398.033 164.078ZM337.912 109.438L335.048 110.333L336.313 114.38L339.708 111.841L337.912 109.438ZM285.345 99.4791L282.463 100.312L284.171 106.227L287.777 101.236L285.345 99.4791ZM163.451 108.839L162.039 111.486L166.121 113.662L166.444 109.048L163.451 108.839ZM102.269 164.458L102.354 167.457L106.923 167.327L104.986 163.187L102.269 164.458ZM76.1479 247.256L78.908 248.431L79.8097 246.314L77.9986 244.895L76.1479 247.256ZM157.112 282.751L160.108 282.919L160.739 271.675L154.598 281.115L157.112 282.751ZM280.68 307.393L281.28 304.454L279.218 304.032L278.12 305.829L280.68 307.393ZM370.092 229.262C371.489 234.034 372.229 239.023 372.229 244.16H378.229C378.229 238.441 377.404 232.885 375.851 227.577L370.092 229.262ZM399.503 184.37C399.503 203.207 388.009 219.255 371.869 225.629L374.073 231.21C392.488 223.937 405.503 205.687 405.503 184.37H399.503ZM395.314 165.346C397.998 171.103 399.503 177.552 399.503 184.37H405.503C405.503 176.661 403.8 169.348 400.752 162.811L395.314 165.346ZM399.503 144.51C399.503 151.097 397.997 157.299 395.336 162.765L400.73 165.392C403.785 159.118 405.503 152.018 405.503 144.51H399.503ZM361.594 104.503C382.391 104.503 399.503 122.272 399.503 144.51H405.503C405.503 119.245 385.984 98.5034 361.594 98.5034V104.503ZM339.708 111.841C345.9 107.212 353.449 104.503 361.594 104.503V98.5034C352.088 98.5034 343.29 101.671 336.115 107.036L339.708 111.841ZM309.146 89.8177C320.964 89.8177 331.264 98.2228 335.048 110.333L340.775 108.544C336.333 94.3261 323.982 83.8177 309.146 83.8177V89.8177ZM287.777 101.236C292.854 94.2061 300.583 89.8177 309.146 89.8177V83.8177C298.435 83.8177 288.982 89.3196 282.913 97.7225L287.777 101.236ZM225.229 62.5449C253.253 62.5449 276.281 78.9122 282.463 100.312L288.227 98.6466C281.165 74.1979 255.388 56.5449 225.229 56.5449V62.5449ZM166.444 109.048C168.231 83.5138 193.449 62.5449 225.229 62.5449V56.5449C191.148 56.5449 162.52 79.1684 160.458 108.629L166.444 109.048ZM142.362 106.601C149.5 106.601 156.202 108.373 162.039 111.486L164.863 106.192C158.173 102.625 150.504 100.601 142.362 100.601V106.601ZM101.306 146.608C101.306 124.58 119.619 106.601 142.362 106.601V100.601C116.442 100.601 95.3063 121.131 95.3063 146.608H101.306ZM104.986 163.187C102.623 158.138 101.306 152.526 101.306 146.608H95.3063C95.3063 153.426 96.8254 159.904 99.5516 165.73L104.986 163.187ZM61.4468 210.594C61.4468 187.108 79.7171 168.104 102.354 167.457L102.183 161.46C76.1854 162.203 55.4468 183.978 55.4468 210.594H61.4468ZM77.9986 244.895C67.944 237.014 61.4468 224.591 61.4468 210.594H55.4468C55.4468 226.482 62.829 240.628 74.2972 249.617L77.9986 244.895ZM76.1328 261.993C76.1328 257.213 77.1141 252.643 78.908 248.431L73.3878 246.08C71.2869 251.013 70.1328 256.381 70.1328 261.993H76.1328ZM118.238 299.902C94.7014 299.902 76.1328 282.66 76.1328 261.993H70.1328C70.1328 286.512 91.9524 305.902 118.238 305.902V299.902ZM154.598 281.115C147.331 292.286 133.826 299.902 118.238 299.902V305.902C135.762 305.902 151.203 297.336 159.627 284.387L154.598 281.115ZM160.047 285.07C160.047 284.349 160.068 283.632 160.108 282.919L154.117 282.583C154.071 283.408 154.047 284.237 154.047 285.07H160.047ZM222.082 333.468C187.125 333.468 160.047 311.18 160.047 285.07H154.047C154.047 315.733 185.204 339.468 222.082 339.468V333.468ZM278.12 305.829C268.25 321.982 247.036 333.468 222.082 333.468V339.468C248.721 339.468 272.084 327.215 283.24 308.957L278.12 305.829ZM298.656 306.195C292.667 306.195 286.848 305.591 281.28 304.454L280.079 310.332C286.043 311.551 292.263 312.195 298.656 312.195V306.195ZM372.229 244.16C372.229 277.98 339.768 306.195 298.656 306.195V312.195C342.125 312.195 378.229 282.175 378.229 244.16H372.229Z" fill="#292929" mask="url(#path-2-inside-1)"/>
</svg>
