<svg width="24" height="24" viewBox="0 0 24 24" fill="red" color="#fff" xmlns="http://www.w3.org/2000/svg">
<path d="M15.0252 12.0625L23.2086 3.87911C23.597 3.49142 23.8154 2.96532 23.8159 2.41655C23.8164 1.86778 23.5989 1.34129 23.2112 0.952907C22.8235 0.564525 22.2974 0.346062 21.7486 0.345578C21.1998 0.345093 20.6733 0.562626 20.285 0.950323L12.1016 9.13371L3.91818 0.950323C3.52979 0.561941 3.00304 0.34375 2.45378 0.34375C1.90453 0.34375 1.37777 0.561941 0.989385 0.950323C0.601003 1.3387 0.382812 1.86546 0.382812 2.41472C0.382812 2.96397 0.601003 3.49073 0.989385 3.87911L9.17277 12.0625L0.989385 20.2459C0.601003 20.6343 0.382812 21.161 0.382812 21.7103C0.382812 22.2595 0.601003 22.7863 0.989385 23.1747C1.37777 23.5631 1.90453 23.7812 2.45378 23.7812C3.00304 23.7812 3.52979 23.5631 3.91818 23.1747L12.1016 14.9913L20.285 23.1747C20.6733 23.5631 21.2001 23.7812 21.7493 23.7812C22.2986 23.7812 22.8254 23.5631 23.2137 23.1747C23.6021 22.7863 23.8203 22.2595 23.8203 21.7103C23.8203 21.161 23.6021 20.6343 23.2137 20.2459L15.0252 12.0625Z" fill="black"/>
</svg>
