<svg width="75" height="86" viewBox="0 0 75 86" fill="none" xmlns="http://www.w3.org/2000/svg">
<path d="M66.9643 37.5H62.9464V25.4464C62.9464 11.4174 51.529 0 37.5 0C23.471 0 12.0536 11.4174 12.0536 25.4464V37.5H8.03571C3.59933 37.5 0 41.0993 0 45.5357V77.6786C0 82.115 3.59933 85.7143 8.03571 85.7143H66.9643C71.4007 85.7143 75 82.115 75 77.6786V45.5357C75 41.0993 71.4007 37.5 66.9643 37.5ZM49.5536 37.5H25.4464V25.4464C25.4464 18.8002 30.8538 13.3929 37.5 13.3929C44.1462 13.3929 49.5536 18.8002 49.5536 25.4464V37.5Z" fill="#292929"/>
</svg>
