<svg width="148" height="107" viewBox="0 0 148 107" fill="none" xmlns="http://www.w3.org/2000/svg">
<g filter="url(#filter0_d)">
<path d="M85.5241 2.13267L73.5021 11.5964C73.1417 11.8801 72.6344 11.8822 72.2716 11.6016L60.3741 2.39731C59.6846 1.86392 58.6904 2.40657 58.766 3.27498L59.6732 13.6965C59.7349 14.4049 59.0584 14.9495 58.3796 14.738L32.3951 6.64392C31.5224 6.37211 30.7726 7.31681 31.2353 8.10498L41.0345 24.7954C41.4475 25.4989 40.8899 26.3743 40.0777 26.2972L13.9158 23.8158C13.0498 23.7337 12.4991 24.7199 13.0234 25.4141L25.79 42.3176C26.2258 42.8946 25.924 43.7291 25.22 43.8939L7.20624 48.1111C6.24372 48.3364 6.15691 49.6728 7.08219 50.0207L28.6702 58.1391C29.2965 58.3746 29.5193 59.1468 29.1147 59.6797L16.2663 76.6032C15.7032 77.3449 16.3704 78.3859 17.2795 78.1841L37.0375 73.797C37.7511 73.6386 38.388 74.2743 38.2309 74.9882L35.033 89.5169C34.8585 90.3095 35.651 90.9688 36.3986 90.6531L54.9377 82.8239C55.3358 82.6558 55.7969 82.7624 56.0807 83.0882L65.3757 93.7575C65.8047 94.2498 66.5828 94.2056 66.9533 93.6679L74.0381 83.3829C74.356 82.9214 74.9911 82.8112 75.4459 83.1387L94.1327 96.5934C94.8184 97.0872 95.7695 96.5605 95.7149 95.7172L94.7129 80.2506C94.6671 79.5442 95.3496 79.0152 96.0222 79.2357L120.472 87.249C121.351 87.5371 122.116 86.5803 121.642 85.7862L112.88 71.1081C112.466 70.4153 113.001 69.5433 113.806 69.5978L135.038 71.0358C136.001 71.101 136.489 69.8988 135.752 69.275L121.932 57.5716C121.33 57.0619 121.528 56.0885 122.281 55.8538L141.519 49.8565C142.393 49.5841 142.472 48.3778 141.641 47.9939L119.529 37.7835C119.008 37.5424 118.796 36.9121 119.066 36.4049L128.625 18.4863C129.032 17.7233 128.344 16.8383 127.504 17.0445L102.388 23.2092C101.659 23.388 101.001 22.7314 101.177 22.0026L105.162 5.55422C105.371 4.68948 104.432 4.00231 103.671 4.46382L89.5593 13.0255C88.929 13.4079 88.1157 13.0001 88.0452 12.2662L87.1381 2.8228C87.0624 2.03535 86.1457 1.64336 85.5241 2.13267Z" fill="white"/>
<path d="M85.5241 2.13267L73.5021 11.5964C73.1417 11.8801 72.6344 11.8822 72.2716 11.6016L60.3741 2.39731C59.6846 1.86392 58.6904 2.40657 58.766 3.27498L59.6732 13.6965C59.7349 14.4049 59.0584 14.9495 58.3796 14.738L32.3951 6.64392C31.5224 6.37211 30.7726 7.31681 31.2353 8.10498L41.0345 24.7954C41.4475 25.4989 40.8899 26.3743 40.0777 26.2972L13.9158 23.8158C13.0498 23.7337 12.4991 24.7199 13.0234 25.4141L25.79 42.3176C26.2258 42.8946 25.924 43.7291 25.22 43.8939L7.20624 48.1111C6.24372 48.3364 6.15691 49.6728 7.08219 50.0207L28.6702 58.1391C29.2965 58.3746 29.5193 59.1468 29.1147 59.6797L16.2663 76.6032C15.7032 77.3449 16.3704 78.3859 17.2795 78.1841L37.0375 73.797C37.7511 73.6386 38.388 74.2743 38.2309 74.9882L35.033 89.5169C34.8585 90.3095 35.651 90.9688 36.3986 90.6531L54.9377 82.8239C55.3358 82.6558 55.7969 82.7624 56.0807 83.0882L65.3757 93.7575C65.8047 94.2498 66.5828 94.2056 66.9533 93.6679L74.0381 83.3829C74.356 82.9214 74.9911 82.8112 75.4459 83.1387L94.1327 96.5934C94.8184 97.0872 95.7695 96.5605 95.7149 95.7172L94.7129 80.2506C94.6671 79.5442 95.3496 79.0152 96.0222 79.2357L120.472 87.249C121.351 87.5371 122.116 86.5803 121.642 85.7862L112.88 71.1081C112.466 70.4153 113.001 69.5433 113.806 69.5978L135.038 71.0358C136.001 71.101 136.489 69.8988 135.752 69.275L121.932 57.5716C121.33 57.0619 121.528 56.0885 122.281 55.8538L141.519 49.8565C142.393 49.5841 142.472 48.3778 141.641 47.9939L119.529 37.7835C119.008 37.5424 118.796 36.9121 119.066 36.4049L128.625 18.4863C129.032 17.7233 128.344 16.8383 127.504 17.0445L102.388 23.2092C101.659 23.388 101.001 22.7314 101.177 22.0026L105.162 5.55422C105.371 4.68948 104.432 4.00231 103.671 4.46382L89.5593 13.0255C88.929 13.4079 88.1157 13.0001 88.0452 12.2662L87.1381 2.8228C87.0624 2.03535 86.1457 1.64336 85.5241 2.13267Z" stroke="black" stroke-width="3"/>
</g>
<g filter="url(#filter1_d)">
<path d="M55.832 64.432C56.248 59.952 56.632 55.552 56.984 51.232C57.144 49.44 57.288 47.552 57.416 45.568C57.576 43.584 57.704 41.632 57.8 39.712C57.928 37.76 58.024 35.888 58.088 34.096C58.152 32.272 58.2 30.608 58.232 29.104C59 29.104 59.816 29.088 60.68 29.056C61.576 29.024 62.376 28.992 63.08 28.96C63.816 28.928 64.44 28.896 64.952 28.864C65.464 28.8 65.72 28.768 65.72 28.768C65.368 32.48 65.064 35.536 64.808 37.936C64.552 40.304 64.344 42.24 64.184 43.744C64.056 45.216 63.928 46.64 63.8 48.016C63.704 49.392 63.592 50.672 63.464 51.856C63.336 53.04 63.224 54.048 63.128 54.88H63.992L69.368 29.344C70.232 29.312 71.112 29.264 72.008 29.2C72.808 29.136 73.64 29.088 74.504 29.056C75.4 29.024 76.216 28.96 76.952 28.864C76.504 30.272 76.04 31.824 75.56 33.52C75.112 35.216 74.632 36.976 74.12 38.8C73.64 40.624 73.16 42.48 72.68 44.368C72.232 46.256 71.784 48.08 71.336 49.84C70.312 53.968 69.288 58.208 68.264 62.56L55.832 64.432ZM92.4515 52.144C92.4515 53.936 92.0995 55.568 91.3955 57.04C90.7235 58.48 89.7955 59.728 88.6115 60.784C87.4595 61.84 86.0835 62.656 84.4835 63.232C82.9155 63.808 81.2195 64.096 79.3955 64.096C78.1155 64.096 76.8355 63.76 75.5555 63.088C74.2755 62.384 73.0435 61.28 71.8595 59.776L75.4115 52.816C75.6355 53.232 75.9715 53.664 76.4195 54.112C76.8675 54.528 77.3635 54.896 77.9075 55.216C78.4835 55.536 79.0435 55.808 79.5875 56.032C80.1635 56.224 80.6755 56.32 81.1235 56.32C81.5075 56.32 81.9075 56.256 82.3235 56.128C82.7395 56 83.1235 55.808 83.4755 55.552C83.8275 55.296 84.0995 55.008 84.2915 54.688C84.5155 54.336 84.6275 53.936 84.6275 53.488C84.6275 52.72 84.3715 52.016 83.8595 51.376C83.3795 50.704 82.7715 50.08 82.0355 49.504C81.2995 48.896 80.4995 48.288 79.6355 47.68C78.7715 47.072 77.9715 46.432 77.2355 45.76C76.5315 45.088 75.9235 44.336 75.4115 43.504C74.8995 42.672 74.6435 41.744 74.6435 40.72C74.6435 39.056 75.1395 37.504 76.1315 36.064C77.1235 34.624 78.3555 33.392 79.8275 32.368C81.3315 31.312 82.9635 30.48 84.7235 29.872C86.4835 29.264 88.1475 28.96 89.7155 28.96C90.5795 28.96 91.3955 29.072 92.1635 29.296C92.9315 29.488 93.5875 29.824 94.1315 30.304C94.7075 30.752 95.1555 31.328 95.4755 32.032C95.8275 32.736 96.0035 33.616 96.0035 34.672C96.0035 35.12 95.9555 35.568 95.8595 36.016C95.7955 36.464 95.7315 36.944 95.6675 37.456L88.7075 39.472C88.7715 39.216 88.8195 38.96 88.8515 38.704C88.9155 38.448 88.9475 38.192 88.9475 37.936C88.9475 36.976 88.7715 36.288 88.4195 35.872C88.0995 35.424 87.6675 35.2 87.1235 35.2C86.8675 35.2 86.5475 35.296 86.1635 35.488C85.8115 35.68 85.4435 35.936 85.0595 36.256C84.7075 36.544 84.4035 36.896 84.1475 37.312C83.8915 37.728 83.7635 38.176 83.7635 38.656C83.7635 39.424 83.9715 40.064 84.3875 40.576C84.8355 41.088 85.3795 41.568 86.0195 42.016C86.6595 42.464 87.3475 42.928 88.0835 43.408C88.8515 43.856 89.5555 44.448 90.1955 45.184C90.8355 45.92 91.3635 46.848 91.7795 47.968C92.2275 49.056 92.4515 50.448 92.4515 52.144Z" fill="#587291"/>
</g>
<defs>
<filter id="filter0_d" x="0.93396" y="0.415039" width="146.788" height="105.872" filterUnits="userSpaceOnUse" color-interpolation-filters="sRGB">
<feFlood flood-opacity="0" result="BackgroundImageFix"/>
<feColorMatrix in="SourceAlpha" type="matrix" values="0 0 0 0 0 0 0 0 0 0 0 0 0 0 0 0 0 0 127 0"/>
<feOffset dy="4"/>
<feGaussianBlur stdDeviation="2"/>
<feColorMatrix type="matrix" values="0 0 0 0 0 0 0 0 0 0 0 0 0 0 0 0 0 0 0.25 0"/>
<feBlend mode="normal" in2="BackgroundImageFix" result="effect1_dropShadow"/>
<feBlend mode="normal" in="SourceGraphic" in2="effect1_dropShadow" result="shape"/>
</filter>
<filter id="filter1_d" x="51.832" y="28.7676" width="48.1715" height="43.664" filterUnits="userSpaceOnUse" color-interpolation-filters="sRGB">
<feFlood flood-opacity="0" result="BackgroundImageFix"/>
<feColorMatrix in="SourceAlpha" type="matrix" values="0 0 0 0 0 0 0 0 0 0 0 0 0 0 0 0 0 0 127 0"/>
<feOffset dy="4"/>
<feGaussianBlur stdDeviation="2"/>
<feColorMatrix type="matrix" values="0 0 0 0 0 0 0 0 0 0 0 0 0 0 0 0 0 0 0.25 0"/>
<feBlend mode="normal" in2="BackgroundImageFix" result="effect1_dropShadow"/>
<feBlend mode="normal" in="SourceGraphic" in2="effect1_dropShadow" result="shape"/>
</filter>
</defs>
</svg>
