<svg width="148" height="235" viewBox="0 0 148 235" fill="none" xmlns="http://www.w3.org/2000/svg">
<g filter="url(#filter0_d)">
<path d="M81.7692 2H66.1923L46 63.6201L72.8269 57.7993L62.4423 81.2832L69.6538 149.928L49.4615 193.685H64.4615L55.8077 226L71.0962 189.871H55.8077L75.1346 151.133V79.6774L91 41.7419L66.1923 45.957L81.7692 2Z" fill="#FFFC31" stroke="black" stroke-width="3"/>
<path d="M85.5241 79.1327L73.5021 88.5964C73.1417 88.8801 72.6344 88.8822 72.2716 88.6016L60.3741 79.3973C59.6846 78.8639 58.6904 79.4066 58.766 80.275L59.6732 90.6965C59.7349 91.4049 59.0584 91.9495 58.3796 91.738L32.3951 83.6439C31.5224 83.3721 30.7726 84.3168 31.2353 85.105L41.0345 101.795C41.4475 102.499 40.8899 103.374 40.0777 103.297L13.9158 100.816C13.0498 100.734 12.4991 101.72 13.0234 102.414L25.79 119.318C26.2258 119.895 25.924 120.729 25.22 120.894L7.20624 125.111C6.24371 125.336 6.15691 126.673 7.08219 127.021L28.6702 135.139C29.2965 135.375 29.5193 136.147 29.1147 136.68L16.2663 153.603C15.7032 154.345 16.3704 155.386 17.2795 155.184L37.0375 150.797C37.7511 150.639 38.388 151.274 38.2309 151.988L35.033 166.517C34.8585 167.309 35.651 167.969 36.3986 167.653L54.9377 159.824C55.3358 159.656 55.7969 159.762 56.0807 160.088L65.3757 170.757C65.8047 171.25 66.5828 171.206 66.9533 170.668L74.0381 160.383C74.356 159.921 74.9911 159.811 75.4459 160.139L94.1327 173.593C94.8184 174.087 95.7695 173.56 95.7149 172.717L94.7129 157.251C94.6671 156.544 95.3496 156.015 96.0222 156.236L120.472 164.249C121.351 164.537 122.116 163.58 121.642 162.786L112.88 148.108C112.466 147.415 113.001 146.543 113.806 146.598L135.038 148.036C136.001 148.101 136.489 146.899 135.752 146.275L121.932 134.572C121.33 134.062 121.528 133.089 122.281 132.854L141.519 126.857C142.393 126.584 142.472 125.378 141.641 124.994L119.529 114.783C119.008 114.542 118.796 113.912 119.066 113.405L128.625 95.4863C129.032 94.7233 128.344 93.8383 127.504 94.0445L102.388 100.209C101.659 100.388 101.001 99.7314 101.177 99.0026L105.162 82.5542C105.371 81.6895 104.432 81.0023 103.671 81.4638L89.5593 90.0255C88.929 90.4079 88.1157 90.0001 88.0452 89.2662L87.1381 79.8228C87.0624 79.0354 86.1457 78.6434 85.5241 79.1327Z" fill="white" stroke="black" stroke-width="3"/>
<g filter="url(#filter1_d)">
<path d="M55.832 143.432C56.248 138.952 56.632 134.552 56.984 130.232C57.144 128.44 57.288 126.552 57.416 124.568C57.576 122.584 57.704 120.632 57.8 118.712C57.928 116.76 58.024 114.888 58.088 113.096C58.152 111.272 58.2 109.608 58.232 108.104C59 108.104 59.816 108.088 60.68 108.056C61.576 108.024 62.376 107.992 63.08 107.96C63.816 107.928 64.44 107.896 64.952 107.864C65.464 107.8 65.72 107.768 65.72 107.768C65.368 111.48 65.064 114.536 64.808 116.936C64.552 119.304 64.344 121.24 64.184 122.744C64.056 124.216 63.928 125.64 63.8 127.016C63.704 128.392 63.592 129.672 63.464 130.856C63.336 132.04 63.224 133.048 63.128 133.88H63.992L69.368 108.344C70.232 108.312 71.112 108.264 72.008 108.2C72.808 108.136 73.64 108.088 74.504 108.056C75.4 108.024 76.216 107.96 76.952 107.864C76.504 109.272 76.04 110.824 75.56 112.52C75.112 114.216 74.632 115.976 74.12 117.8C73.64 119.624 73.16 121.48 72.68 123.368C72.232 125.256 71.784 127.08 71.336 128.84C70.312 132.968 69.288 137.208 68.264 141.56L55.832 143.432ZM92.4515 131.144C92.4515 132.936 92.0995 134.568 91.3955 136.04C90.7235 137.48 89.7955 138.728 88.6115 139.784C87.4595 140.84 86.0835 141.656 84.4835 142.232C82.9155 142.808 81.2195 143.096 79.3955 143.096C78.1155 143.096 76.8355 142.76 75.5555 142.088C74.2755 141.384 73.0435 140.28 71.8595 138.776L75.4115 131.816C75.6355 132.232 75.9715 132.664 76.4195 133.112C76.8675 133.528 77.3635 133.896 77.9075 134.216C78.4835 134.536 79.0435 134.808 79.5875 135.032C80.1635 135.224 80.6755 135.32 81.1235 135.32C81.5075 135.32 81.9075 135.256 82.3235 135.128C82.7395 135 83.1235 134.808 83.4755 134.552C83.8275 134.296 84.0995 134.008 84.2915 133.688C84.5155 133.336 84.6275 132.936 84.6275 132.488C84.6275 131.72 84.3715 131.016 83.8595 130.376C83.3795 129.704 82.7715 129.08 82.0355 128.504C81.2995 127.896 80.4995 127.288 79.6355 126.68C78.7715 126.072 77.9715 125.432 77.2355 124.76C76.5315 124.088 75.9235 123.336 75.4115 122.504C74.8995 121.672 74.6435 120.744 74.6435 119.72C74.6435 118.056 75.1395 116.504 76.1315 115.064C77.1235 113.624 78.3555 112.392 79.8275 111.368C81.3315 110.312 82.9635 109.48 84.7235 108.872C86.4835 108.264 88.1475 107.96 89.7155 107.96C90.5795 107.96 91.3955 108.072 92.1635 108.296C92.9315 108.488 93.5875 108.824 94.1315 109.304C94.7075 109.752 95.1555 110.328 95.4755 111.032C95.8275 111.736 96.0035 112.616 96.0035 113.672C96.0035 114.12 95.9555 114.568 95.8595 115.016C95.7955 115.464 95.7315 115.944 95.6675 116.456L88.7075 118.472C88.7715 118.216 88.8195 117.96 88.8515 117.704C88.9155 117.448 88.9475 117.192 88.9475 116.936C88.9475 115.976 88.7715 115.288 88.4195 114.872C88.0995 114.424 87.6675 114.2 87.1235 114.2C86.8675 114.2 86.5475 114.296 86.1635 114.488C85.8115 114.68 85.4435 114.936 85.0595 115.256C84.7075 115.544 84.4035 115.896 84.1475 116.312C83.8915 116.728 83.7635 117.176 83.7635 117.656C83.7635 118.424 83.9715 119.064 84.3875 119.576C84.8355 120.088 85.3795 120.568 86.0195 121.016C86.6595 121.464 87.3475 121.928 88.0835 122.408C88.8515 122.856 89.5555 123.448 90.1955 124.184C90.8355 124.92 91.3635 125.848 91.7795 126.968C92.2275 128.056 92.4515 129.448 92.4515 131.144Z" fill="#587291"/>
</g>
</g>
<defs>
<filter id="filter0_d" x="0.933838" y="0.5" width="146.788" height="234.085" filterUnits="userSpaceOnUse" color-interpolation-filters="sRGB">
<feFlood flood-opacity="0" result="BackgroundImageFix"/>
<feColorMatrix in="SourceAlpha" type="matrix" values="0 0 0 0 0 0 0 0 0 0 0 0 0 0 0 0 0 0 127 0"/>
<feOffset dy="4"/>
<feGaussianBlur stdDeviation="2"/>
<feColorMatrix type="matrix" values="0 0 0 0 0 0 0 0 0 0 0 0 0 0 0 0 0 0 0.25 0"/>
<feBlend mode="normal" in2="BackgroundImageFix" result="effect1_dropShadow"/>
<feBlend mode="normal" in="SourceGraphic" in2="effect1_dropShadow" result="shape"/>
</filter>
<filter id="filter1_d" x="55.832" y="107.768" width="40.1715" height="40.664" filterUnits="userSpaceOnUse" color-interpolation-filters="sRGB">
<feFlood flood-opacity="0" result="BackgroundImageFix"/>
<feColorMatrix in="SourceAlpha" type="matrix" values="0 0 0 0 0 0 0 0 0 0 0 0 0 0 0 0 0 0 127 0"/>
<feOffset dy="5"/>
<feColorMatrix type="matrix" values="0 0 0 0 0 0 0 0 0 0 0 0 0 0 0 0 0 0 1 0"/>
<feBlend mode="normal" in2="BackgroundImageFix" result="effect1_dropShadow"/>
<feBlend mode="normal" in="SourceGraphic" in2="effect1_dropShadow" result="shape"/>
</filter>
</defs>
</svg>
